<svg width="58" height="60" fill="none" xmlns="http://www.w3.org/2000/svg"><path d="M5.14 46.92 28.94 60l23.92-13.257 4.46-36.984L28.91 0 .68 9.935 5.14 46.92z" fill="#B3B3B3"/><path d="m28.844 56.875 21.505-11.902 4.155-33.077-25.66-8.75v53.729z" fill="#A6120D"/><path d="M28.843 56.875V3.145L3.848 12.054 7.67 45.13l21.173 11.744z" fill="#DD1B16"/><path d="m35.907 31.748-7.064 3.303H21.4l-3.5 8.754-6.51.12L28.844 5.097l7.064 26.651zm-.683-1.663L28.89 17.546 23.695 29.87h5.148l6.381.215z" fill="#F2F2F2"/><path d="M34.785 29.88h-5.929l-.013 5.163 8.198.008 3.831 8.875 6.228.116L28.843 5.097l.047 12.45 5.895 12.332z" fill="#B3B3B3"/></svg>